<svg width="166" height="43" viewBox="0 0 166 43" fill="none" xmlns="http://www.w3.org/2000/svg">
<g clip-path="url(#clip0_293_1909)">
<path d="M64.4354 16.6423C63.5769 15.4472 61.7368 14.341 59.5291 14.341C55.325 14.341 52.1357 17.8387 52.1357 22.1138C52.1357 26.3888 55.3264 29.8852 59.5291 29.8852C61.7354 29.8852 63.5769 28.779 64.4354 27.5826V29.5888H67.8099V7.1665H64.4367V16.6423H64.4354ZM60.1429 26.8954C57.4139 26.8954 55.5725 24.803 55.5725 22.1138C55.5725 19.4245 57.4139 17.3308 60.1429 17.3308C62.8718 17.3308 64.7119 19.4232 64.7119 22.1138C64.7119 24.8044 62.8718 26.8954 60.1429 26.8954Z" fill="#383736"/>
<path d="M82.202 16.6421C81.3435 15.447 79.502 14.3408 77.2943 14.3408C73.093 14.3408 69.9023 17.8385 69.9023 22.1136C69.9023 26.3886 73.0916 29.885 77.2943 29.885C79.5007 29.885 81.3435 28.7788 82.202 27.5824V29.5885H85.5751V14.6386H82.202V16.6407V16.6421ZM77.9081 26.8952C75.1778 26.8952 73.3377 24.8028 73.3377 22.1136C73.3377 19.4243 75.1791 17.3305 77.9081 17.3305C80.637 17.3305 82.4771 19.4229 82.4771 22.1136C82.4771 24.8042 80.6357 26.8952 77.9081 26.8952Z" fill="#383736"/>
<path d="M109.342 16.6423C108.483 15.4472 106.643 14.3411 104.434 14.3411C100.233 14.3411 97.0422 17.8387 97.0422 22.1138C97.0422 26.3889 100.233 29.8852 104.434 29.8852C106.641 29.8852 108.483 28.779 109.342 27.5826V29.5888H112.715V14.6388H109.342V16.641V16.6423ZM105.051 26.8955C102.32 26.8955 100.482 24.8031 100.482 22.1138C100.482 19.4245 102.322 17.3308 105.051 17.3308C107.78 17.3308 109.621 19.4232 109.621 22.1138C109.621 24.8044 107.777 26.8955 105.051 26.8955Z" fill="#383736"/>
<path d="M124.076 14.3398C121.87 14.3398 119.997 15.446 119.138 16.6411V14.6349H115.764V35.8324H119.138V27.5827C119.997 28.7778 121.869 29.8853 124.076 29.8853C128.278 29.8853 131.468 26.3877 131.468 22.1139C131.468 17.8402 128.278 14.3412 124.076 14.3412V14.3398ZM123.463 26.8943C120.732 26.8943 118.86 24.8019 118.86 22.1126C118.86 19.4233 120.731 17.3296 123.463 17.3296C126.194 17.3296 128.031 19.422 128.031 22.1126C128.031 24.8032 126.161 26.8943 123.463 26.8943Z" fill="#383736"/>
<path d="M137.05 7.1665H133.676V29.5861H137.05V7.1665Z" fill="#383736"/>
<path d="M147.294 14.3396C142.754 14.3396 139.258 17.7793 139.258 22.1123C139.258 26.4453 142.754 29.8837 147.294 29.8837C151.834 29.8837 155.33 26.444 155.33 22.1123C155.33 17.7807 151.833 14.3396 147.294 14.3396ZM147.294 26.8361C144.564 26.8361 142.663 24.7733 142.663 22.1137C142.663 19.4541 144.565 17.3832 147.294 17.3832C150.023 17.3832 151.895 19.446 151.895 22.1137C151.895 24.7814 149.993 26.8361 147.294 26.8361Z" fill="#383736"/>
<path d="M161.059 14.6401C159.028 14.6401 157.382 16.2448 157.382 18.224V29.5887H160.756V17.5706H166.001V14.6401H161.059Z" fill="#383736"/>
<path d="M91.3718 10.4849H88V26.0047C88 27.984 89.6465 29.5886 91.6773 29.5886H95.7638V26.6609H91.3718V17.5732H95.7569V14.64H91.3718V10.4849Z" fill="#383736"/>
<path d="M19.5999 16.4009C18.8009 15.6235 17.5069 15.6235 16.7065 16.4009L3.87598 28.9068C4.30592 29.4309 4.76489 29.9308 5.25151 30.4051L6.68649 31.8049L19.5999 19.2195C20.3976 18.4408 20.3976 17.1797 19.5999 16.3996V16.4009Z" fill="#4152F3"/>
<path d="M28.3263 17.8105C28.3332 12.3484 23.7947 7.91568 18.1902 7.90894C15.4903 7.90625 12.901 8.95177 10.9946 10.8138L0.24884 21.2879C0.541919 22.7309 1.01748 24.1335 1.66723 25.4633L13.8369 13.6041C16.2216 11.28 20.0869 11.28 22.4717 13.6041C24.8564 15.9282 24.8564 19.6954 22.4717 22.0195L9.561 34.6036L12.4323 37.4101L25.3554 24.8152C27.2674 22.9613 28.3388 20.4391 28.3291 17.8105H28.3263Z" fill="#4152F3"/>
<path d="M31.0967 5.21686C23.9606 -1.73805 12.3909 -1.7394 5.25468 5.21551C5.25468 5.21551 5.2533 5.21686 5.25191 5.21686C2.28933 8.09475 0.435471 11.8781 0 15.9308L8.12325 8.01526C13.6738 2.60573 22.6735 2.60573 28.224 8.01526C33.7759 13.4248 33.7759 22.1959 28.224 27.6068L15.3023 40.2003L18.1736 43L31.0967 30.4052C38.2329 23.4503 38.2343 12.1745 31.0981 5.21955C31.0981 5.21955 31.0981 5.21955 31.0967 5.21686Z" fill="#4152F3"/>
</g>
<defs>
<clipPath id="clip0_293_1909">
<rect width="166" height="43" fill="white"/>
</clipPath>
</defs>
</svg>
