<svg width="512" height="512" viewBox="0 0 512 512" fill="none" xmlns="http://www.w3.org/2000/svg">
<path d="M511.5 256C511.5 397.109 397.109 511.5 256 511.5C114.891 511.5 0.5 397.109 0.5 256C0.5 114.891 114.891 0.5 256 0.5C397.109 0.5 511.5 114.891 511.5 256Z" fill="#EEE6BC" stroke="black"/>
<path d="M170.948 284.954C170.947 272.336 160.745 262.066 148.059 262.066C135.44 262.066 125.169 272.269 125.169 284.955C125.169 297.574 135.372 307.844 148.059 307.844L170.948 284.954ZM170.948 284.954C170.948 284.954 170.948 284.955 170.948 284.955H170.448L170.948 284.952C170.948 284.953 170.948 284.953 170.948 284.954ZM175.529 284.953V284.955C175.529 300.109 163.212 312.425 148.059 312.425C132.905 312.425 120.588 300.109 120.588 284.955C120.588 269.802 132.905 257.485 148.059 257.485C163.28 257.485 175.593 269.737 175.529 284.953Z" fill="#30302F" stroke="black"/>
<path d="M166.938 285.061H166.953H167.428H178.681V285.112H167.428H166.964H166.944H166.443H164.054V285.061H166.443H166.938ZM148.15 304.259V315.708H148.1V304.259V303.771L147.612 303.759C143.637 303.656 139.959 302.309 136.96 300.092C139.931 302.273 143.57 303.6 147.52 303.708L148.034 303.722V303.208V301.016H148.084V303.208V303.722L148.598 303.708C157.733 303.459 165.263 296.685 166.709 287.919C165.316 296.729 157.762 303.523 148.637 303.759L148.15 303.771V304.259ZM129.305 285.112H129.289H128.821H117.569V285.061H128.821H129.296H129.312H129.806H132.195V285.112H129.806H129.305ZM148.15 266.637V269.157H148.1V266.637V266.123L147.586 266.137C140.804 266.319 134.945 270.094 131.788 275.596C134.947 270.054 140.828 266.259 147.612 266.086L148.1 266.073V265.586V254.465H148.15V265.586V266.07L148.634 266.086C151.462 266.176 154.142 266.894 156.534 268.105C154.151 266.913 151.483 266.213 148.664 266.137L148.15 266.123V266.637Z" fill="#30302F" stroke="black"/>
<path d="M144.422 293.647V280.531H151.761V293.647H144.422Z" fill="#E4C320" stroke="black"/>
<path d="M148.19 272.652C148.575 272.652 148.992 272.845 149.427 273.25C149.859 273.653 150.267 274.23 150.621 274.897C151.224 276.037 151.624 277.356 151.732 278.349H144.649C144.756 277.356 145.156 276.037 145.76 274.897C146.113 274.23 146.521 273.653 146.953 273.25C147.388 272.845 147.805 272.652 148.19 272.652Z" fill="#E4C320" stroke="black"/>
<mask id="path-6-inside-1" fill="white">
<path d="M151.276 297.102V296.445V295.723V294.804V294.738V294.082H144.842V294.738V294.804V295.723V296.445V297.102H144.119V298.021H151.998V297.102H151.276ZM145.826 294.804H150.357V295.723H145.826V294.804ZM145.826 296.445H150.357V297.102H145.826V296.445Z"/>
</mask>
<path d="M151.276 297.102V296.445V295.723V294.804V294.738V294.082H144.842V294.738V294.804V295.723V296.445V297.102H144.119V298.021H151.998V297.102H151.276ZM145.826 294.804H150.357V295.723H145.826V294.804ZM145.826 296.445H150.357V297.102H145.826V296.445Z" fill="#E4C320"/>
<path d="M151.276 297.102H150.276V298.102H151.276V297.102ZM151.276 294.082H152.276V293.082H151.276V294.082ZM144.842 294.082V293.082H143.842V294.082H144.842ZM144.842 297.102V298.102H145.842V297.102H144.842ZM144.119 297.102V296.102H143.119V297.102H144.119ZM144.119 298.021H143.119V299.021H144.119V298.021ZM151.998 298.021V299.021H152.998V298.021H151.998ZM151.998 297.102H152.998V296.102H151.998V297.102ZM145.826 294.804V293.804H144.826V294.804H145.826ZM150.357 294.804H151.357V293.804H150.357V294.804ZM150.357 295.723V296.723H151.357V295.723H150.357ZM145.826 295.723H144.826V296.723H145.826V295.723ZM145.826 296.445V295.445H144.826V296.445H145.826ZM150.357 296.445H151.357V295.445H150.357V296.445ZM150.357 297.102V298.102H151.357V297.102H150.357ZM145.826 297.102H144.826V298.102H145.826V297.102ZM152.276 297.102V296.445H150.276V297.102H152.276ZM152.276 296.445V295.723H150.276V296.445H152.276ZM152.276 295.723V294.804H150.276V295.723H152.276ZM152.276 294.804V294.738H150.276V294.804H152.276ZM152.276 294.738V294.082H150.276V294.738H152.276ZM151.276 293.082H144.842V295.082H151.276V293.082ZM143.842 294.082V294.738H145.842V294.082H143.842ZM143.842 294.738V294.804H145.842V294.738H143.842ZM143.842 294.804V295.723H145.842V294.804H143.842ZM143.842 295.723V296.445H145.842V295.723H143.842ZM143.842 296.445V297.102H145.842V296.445H143.842ZM144.842 296.102H144.119V298.102H144.842V296.102ZM143.119 297.102V298.021H145.119V297.102H143.119ZM144.119 299.021H151.998V297.021H144.119V299.021ZM152.998 298.021V297.102H150.998V298.021H152.998ZM151.998 296.102H151.276V298.102H151.998V296.102ZM145.826 295.804H150.357V293.804H145.826V295.804ZM149.357 294.804V295.723H151.357V294.804H149.357ZM150.357 294.723H145.826V296.723H150.357V294.723ZM146.826 295.723V294.804H144.826V295.723H146.826ZM145.826 297.445H150.357V295.445H145.826V297.445ZM149.357 296.445V297.102H151.357V296.445H149.357ZM150.357 296.102H145.826V298.102H150.357V296.102ZM146.826 297.102V296.445H144.826V297.102H146.826Z" fill="black" mask="url(#path-6-inside-1)"/>
<path d="M108.265 254.399H108.719L109.967 272.308H109.559C107.841 266.789 105.407 262.734 102.282 260.207C99.0957 257.631 95.1725 256.354 90.6742 256.354C87.7892 256.354 85.0922 256.89 82.5916 258.038C80.0732 259.129 77.9747 260.895 76.2262 263.181C74.475 265.471 73.0716 268.353 72.0729 271.748C71.0704 275.157 70.6081 279.213 70.6081 283.839C70.6081 287.555 71.0725 291.021 72.0095 294.033C72.9436 297.035 74.2835 299.722 76.1051 301.949C77.9269 304.175 80.156 305.865 82.7875 307.013C85.4298 308.231 88.4587 308.764 91.856 308.764C95.4118 308.764 98.7101 307.958 101.61 306.408C104.396 304.948 107.383 301.975 110.639 297.504L111.136 297.802C108.401 302.46 105.316 305.86 101.834 308.037C98.2478 310.278 93.9436 311.44 88.9014 311.44C85.0244 311.44 81.4795 310.73 78.2615 309.378C75.0442 308.027 72.277 306.097 69.8929 303.65C67.5749 301.202 65.7079 298.305 64.4192 294.89C63.1271 291.466 62.416 287.783 62.416 283.773C62.416 278.27 63.6451 273.298 66.0979 268.779L66.098 268.779L66.1019 268.772C68.4876 264.194 71.8356 260.717 76.0885 258.204C80.4122 255.688 85.0525 254.399 90.1489 254.399C94.0675 254.399 97.9286 255.361 101.737 257.297C102.305 257.598 102.815 257.837 103.251 258.002C103.673 258.163 104.072 258.273 104.397 258.273C105.487 258.273 106.345 257.794 107.016 256.973C107.597 256.263 107.993 255.398 108.265 254.399Z" fill="#30302F" stroke="black"/>
<path d="M217.065 256.288H215.596V255.778H233.965V256.288H232.429C231.437 256.288 230.539 256.353 229.757 256.563C228.907 256.723 228.229 257.19 227.656 257.835L227.646 257.847L227.635 257.86C227.127 258.513 226.706 259.366 226.429 260.475C226.152 261.583 226.02 263.074 226.02 264.93V311.178H225.378L188.957 266.648L188.07 265.564V266.965V301.173C188.07 303.091 188.201 304.649 188.479 305.759C188.751 306.849 189.171 307.788 189.704 308.396C190.252 309.022 191.018 309.396 191.829 309.544C192.588 309.682 193.472 309.749 194.413 309.749H195.883V310.259H177.58V309.683H179.049C180.041 309.683 180.94 309.618 181.721 309.408C182.546 309.253 183.289 308.806 183.814 308.211C184.436 307.581 184.787 306.614 185.05 305.562C185.327 304.453 185.459 302.962 185.459 301.107V262.5V262.325L185.349 262.188C184.55 261.189 183.815 260.387 183.277 259.849L183.251 259.823C182.745 259.317 182.186 258.758 181.612 258.399C181.508 258.334 181.403 258.266 181.296 258.198C180.897 257.941 180.474 257.669 179.975 257.447C179.361 257.175 178.621 256.906 177.757 256.64C176.983 256.383 175.854 256.252 174.494 256.227V255.712H188.792L222.587 297.155L223.474 298.244V296.839V264.864C223.474 262.941 223.342 261.454 223.067 260.285C222.792 259.117 222.367 258.231 221.752 257.616C221.162 257.026 220.481 256.644 219.65 256.493C218.891 256.355 218.006 256.288 217.065 256.288Z" fill="#30302F" stroke="black"/>
<path d="M277.602 256.288H276.132V255.778H294.501V256.288H292.966C291.974 256.288 291.075 256.353 290.294 256.563C289.443 256.723 288.766 257.19 288.193 257.835L288.182 257.847L288.172 257.86C287.664 258.513 287.243 259.366 286.965 260.475C286.688 261.583 286.557 263.074 286.557 264.93V311.178H285.849L249.428 266.648L248.541 265.564V266.965V301.173C248.541 303.091 248.672 304.649 248.95 305.759C249.222 306.849 249.642 307.788 250.174 308.396C250.723 309.022 251.489 309.396 252.3 309.544C253.059 309.682 253.943 309.749 254.884 309.749H256.354V310.259H238.051V309.683H239.52C240.512 309.683 241.411 309.618 242.192 309.408C243.017 309.253 243.76 308.806 244.285 308.211C244.907 307.581 245.258 306.614 245.521 305.562C245.798 304.453 245.929 302.962 245.929 301.107V262.5V262.325L245.82 262.188C245.026 261.195 244.296 260.398 243.758 259.859C243.222 259.258 242.675 258.775 242.115 258.419C241.604 257.989 241.033 257.708 240.446 257.447C239.832 257.175 239.092 256.906 238.228 256.64C237.454 256.383 236.325 256.252 234.965 256.227V255.712H249.328L283.124 297.155L284.011 298.244V296.839V264.864C284.011 262.941 283.879 261.454 283.604 260.285C283.329 259.117 282.903 258.231 282.289 257.616C281.698 257.026 281.017 256.644 280.186 256.493C279.427 256.355 278.543 256.288 277.602 256.288Z" fill="#30302F" stroke="black"/>
<path d="M313.148 280.662V280.162V258.798V258.298V258.232H313.648V257.798H328.749C330.592 257.798 332.203 257.863 333.428 258.068C334.671 258.275 335.746 258.696 336.62 259.424L336.628 259.431L336.636 259.438C337.419 260.149 338.118 261.134 338.604 262.385C339.046 263.519 339.481 265.048 339.86 266.859H339.936V255.712H298.193V256.222H299.663C302.017 256.222 303.834 256.757 304.959 258.03C305.425 258.541 305.703 259.409 305.877 260.501C306.055 261.622 306.138 263.08 306.138 264.864V300.91C306.138 302.262 306.105 303.394 306.029 304.308C305.956 305.201 305.839 305.919 305.657 306.439C305.492 307.075 305.099 307.613 304.645 307.991C304.234 308.334 303.724 308.703 303.121 308.929L303.109 308.934C302.591 309.128 302.038 309.335 301.413 309.474C300.794 309.612 300.232 309.683 299.663 309.683H298.193V310.324H340.08L344.528 297.405H343.889C342.096 300.764 340.404 303.291 338.747 304.882L338.737 304.891L338.737 304.891C338.001 305.56 337.334 306.094 336.738 306.557L336.724 306.569L336.709 306.579C336.071 307.004 335.305 307.35 334.488 307.622L334.47 307.628L334.451 307.633C333.649 307.833 332.697 308.038 331.537 308.106C331.537 308.106 331.537 308.106 331.536 308.106L331.507 307.607C330.456 307.673 329.078 307.738 327.502 307.738H318.113C316.931 307.738 316.012 307.673 315.421 307.541C314.83 307.41 314.37 307.082 314.108 306.688C313.845 306.294 313.714 305.637 313.648 304.85C313.582 304.062 313.582 302.946 313.582 301.568V301.567L313.148 280.662ZM313.148 280.662H313.648H325.795C327.584 280.662 329.084 280.531 330.269 280.182C331.441 279.838 332.376 279.343 333.108 278.612C333.849 277.87 334.275 276.924 334.551 275.892C334.795 274.974 334.928 273.859 335.001 272.652M313.148 280.662L335.001 272.652M335.001 272.652H335.537V290.955H334.966L335.001 272.652Z" fill="#30302F" stroke="black"/>
<path d="M396.766 254.399H397.219L398.467 272.308H398.06C396.341 266.789 393.907 262.734 390.782 260.207C387.596 257.631 383.673 256.354 379.174 256.354C376.289 256.354 373.592 256.89 371.092 258.038C368.573 259.129 366.475 260.895 364.726 263.181C362.975 265.471 361.572 268.353 360.573 271.748C359.571 275.157 359.108 279.213 359.108 283.839C359.108 287.555 359.573 291.02 360.509 294.032C361.445 297.104 362.786 299.725 364.605 301.949C366.427 304.175 368.656 305.865 371.288 307.013C373.93 308.231 376.959 308.764 380.356 308.764C383.912 308.764 387.21 307.958 390.11 306.408C392.896 304.948 395.883 301.975 399.139 297.504L399.636 297.802C396.902 302.46 393.817 305.86 390.334 308.037C386.748 310.278 382.444 311.44 377.402 311.44C373.525 311.44 369.98 310.73 366.762 309.378C363.544 308.027 360.777 306.097 358.393 303.65C356.075 301.202 354.208 298.305 352.919 294.89L352.918 294.887C351.628 291.532 350.916 287.785 350.916 283.773C350.916 278.27 352.145 273.298 354.598 268.779L354.598 268.779L354.602 268.772C356.988 264.194 360.336 260.717 364.589 258.204C368.912 255.688 373.553 254.399 378.649 254.399C382.568 254.399 386.429 255.361 390.237 257.297C390.805 257.598 391.316 257.837 391.751 258.002C392.173 258.163 392.572 258.273 392.897 258.273C393.987 258.273 394.845 257.794 395.516 256.973C396.097 256.263 396.493 255.398 396.766 254.399Z" fill="#30302F" stroke="black"/>
<path d="M438.595 309.617H439.999V310.127H417.493V309.683H418.963C419.955 309.683 420.854 309.618 421.635 309.408C422.481 309.249 423.152 308.787 423.716 308.223L423.728 308.212L423.739 308.199C424.271 307.591 424.691 306.652 424.964 305.562C425.241 304.453 425.372 302.962 425.372 301.107V258.692V258.192H424.872H418.175C416.511 258.192 414.966 258.325 413.676 258.596C412.297 258.872 411.179 259.36 410.132 260.127L410.125 260.132L410.119 260.137C409.134 260.911 408.293 261.964 407.734 263.291C407.224 264.503 406.899 265.986 406.747 267.778H406.2V255.712H451.095V267.674C450.601 264.425 449.609 261.971 447.924 260.487C446.22 258.927 443.648 258.192 440.499 258.192H432.686H432.186V258.692V301.107C432.186 303.027 432.317 304.519 432.595 305.627C432.867 306.718 433.287 307.656 433.82 308.265C434.368 308.891 435.134 309.265 435.945 309.412C436.705 309.55 437.589 309.617 438.595 309.617Z" fill="#30302F" stroke="black"/>
<path d="M77.2797 238.378H78.3555V238.495H60.9056V238.313H61.9158C62.7316 238.313 63.4256 238.245 64.0596 238.104C64.7448 237.952 65.289 237.642 65.7492 237.181L65.7628 237.168L65.7753 237.153C66.2426 236.608 66.5306 235.93 66.7372 234.967C66.9445 234.067 67.0775 232.847 67.0775 231.313V203.474V203.451C67.0775 202.485 67.0775 201.676 67.0093 200.995C66.9446 200.348 66.8754 199.766 66.7235 199.31C66.5939 198.922 66.4377 198.503 66.1019 198.155C65.8295 197.808 65.42 197.576 65.0406 197.386C64.0499 196.823 62.9837 196.539 61.8501 196.539H60.84V196.357H78.2898V196.539H77.2797C76.4639 196.539 75.7699 196.607 75.1358 196.748C74.4464 196.901 73.8892 197.217 73.4202 197.764C72.9529 198.31 72.6649 198.988 72.4582 199.951C72.2511 200.85 72.118 202.07 72.118 203.539V231.378V231.403C72.118 232.357 72.118 233.221 72.1837 233.898C72.187 234.612 72.3309 235.184 72.4719 235.607C72.6243 236.064 72.851 236.44 73.0715 236.734L73.0929 236.762L73.118 236.788C73.4137 237.083 73.7154 237.31 74.1475 237.528C75.0818 238.098 76.152 238.378 77.2797 238.378Z" fill="#30302F" stroke="black"/>
<path d="M147.599 238.378H148.609V238.56H134.639V238.378H135.649C136.458 238.378 137.157 238.312 137.734 238.168C138.416 238.015 138.958 237.706 139.417 237.247L139.431 237.234L139.443 237.219C139.909 236.676 140.197 236 140.404 235.102C140.615 234.19 140.68 233.025 140.68 231.575V203.342C140.68 202.336 140.613 201.401 140.547 200.609C140.474 199.731 140.178 198.984 139.726 198.381C139.259 197.757 138.578 197.319 137.746 196.972C136.964 196.646 135.884 196.507 134.639 196.479V196.292H146.033L161.59 229.751L162.049 230.736L162.499 229.747L177.73 196.292H189.12V196.474H188.176C187.36 196.474 186.666 196.542 186.032 196.682C185.342 196.836 184.785 197.152 184.316 197.699C183.851 198.242 183.562 198.918 183.355 199.816C183.145 200.728 183.08 201.893 183.08 203.342V231.575C183.08 233.113 183.213 234.269 183.421 235.168C183.635 236.097 183.999 236.762 184.448 237.285L184.46 237.299L184.474 237.313C184.934 237.773 185.478 238.083 186.163 238.235L186.19 238.241L186.216 238.244C186.81 238.31 187.49 238.378 188.241 238.378H189.186V238.56H171.867V238.378H172.877C173.687 238.378 174.385 238.312 174.962 238.168C175.649 238.014 176.204 237.699 176.671 237.153C177.137 236.61 177.425 235.934 177.632 235.036C177.843 234.124 177.908 232.96 177.908 231.575V202.751L176.953 202.543L160.476 238.495H159.935L143.392 202.542L142.437 202.751V231.575C142.437 233.113 142.571 234.269 142.779 235.168C142.993 236.097 143.357 236.762 143.805 237.285L143.818 237.299L143.831 237.313C144.292 237.773 144.836 238.083 145.521 238.235L145.547 238.241L145.574 238.244C146.168 238.31 146.848 238.378 147.599 238.378Z" fill="#30302F" stroke="black"/>
<path d="M247.176 218.283L246.571 218.154V218.772V231.313C246.571 232.707 246.654 233.857 246.817 234.744C246.975 235.599 247.223 236.304 247.629 236.715C248.6 237.756 249.928 238.247 251.667 238.247H252.808V238.429H235.358V238.247H236.5C238.389 238.247 239.884 237.61 240.79 236.252L240.79 236.252L240.796 236.243C241.084 235.789 241.26 235.144 241.37 234.343C241.481 233.531 241.53 232.504 241.53 231.247V203.474C241.53 202.116 241.464 200.985 241.318 200.101C241.176 199.239 240.945 198.525 240.548 198.084L240.548 198.084L240.543 198.078C239.58 197.041 238.192 196.474 236.5 196.474H235.358V196.292H250.682C254.464 196.292 257.416 196.684 259.634 197.508L259.634 197.508L259.642 197.511C260.72 197.891 261.728 198.396 262.604 199.022L262.61 199.027L262.617 199.031C263.539 199.645 264.288 200.452 264.996 201.353C265.675 202.218 266.179 203.216 266.629 204.309C266.999 205.363 267.187 206.549 267.187 207.741C267.187 209.45 266.872 210.961 266.305 212.345C265.741 213.724 264.931 214.907 263.81 215.903L263.804 215.908L263.799 215.913C262.748 216.903 261.37 217.66 259.77 218.236C258.199 218.802 256.355 219.06 254.293 219.06H254.285L254.277 219.06C252.294 219.124 249.907 218.868 247.176 218.283ZM246.571 216.934V217.353L246.984 217.426C247.292 217.48 247.597 217.535 247.895 217.588C248.667 217.727 249.394 217.857 250.015 217.953C250.885 218.087 251.634 218.156 252.323 218.156C253.519 218.156 254.634 217.874 255.661 217.463L255.674 217.458L255.686 217.452C256.737 216.962 257.643 216.264 258.404 215.433C259.174 214.593 259.794 213.555 260.271 212.397C260.761 211.206 260.965 209.891 260.965 208.529C260.965 206.902 260.694 205.397 260.21 204.15C259.728 202.844 259.035 201.731 258.127 200.822C257.234 199.93 256.261 199.232 255.074 198.744C253.886 198.254 252.638 198.049 251.273 198.049C250.169 198.049 248.684 198.255 246.958 198.653L246.571 198.743V199.14V216.934Z" fill="#30302F" stroke="black"/>
<path d="M336.038 197.721H335.538V198.221V215.292V215.792H336.038H345.492C346.897 215.792 348.068 215.659 348.988 215.376C349.91 215.092 350.629 214.663 351.205 214.158L351.231 214.136L351.253 214.111C351.755 213.538 352.192 212.812 352.412 211.934C352.589 211.224 352.713 210.423 352.787 209.489H353.003V223.459H352.767C352.636 222.393 352.459 221.523 352.283 220.761C352.072 219.847 351.709 219.095 351.164 218.55C350.64 218.025 349.903 217.586 349.028 217.368L349.028 217.368L349.019 217.366C348.123 217.159 347.034 217.025 345.558 217.025H336.103H335.603V217.525V231.772V231.799C335.603 232.828 335.603 233.701 335.671 234.383C335.732 234.994 335.798 235.602 336.152 236.064C336.456 236.544 336.999 236.779 337.476 236.915L337.509 236.924L337.543 236.929C338.027 236.998 338.772 237.065 339.714 237.065H347.002H347.02C348.253 237.065 349.32 237.065 350.192 236.998C351.076 236.93 351.834 236.793 352.53 236.585L352.537 236.582L352.544 236.58C353.161 236.375 353.803 236.093 354.318 235.725C354.785 235.391 355.337 234.978 355.891 234.424C357.145 233.17 358.501 231.243 359.847 228.661H360.155L356.757 238.495H324.391V238.313H325.401C325.831 238.313 326.32 238.243 326.763 238.18L326.785 238.176C327.063 238.137 327.313 238.058 327.532 237.98C327.639 237.941 327.726 237.907 327.807 237.876C327.913 237.836 328.007 237.799 328.12 237.762L328.153 237.751L328.185 237.735C328.601 237.527 328.961 237.312 329.325 237.021C329.743 236.687 329.987 236.271 330.141 235.811C330.436 234.993 330.563 233.531 330.563 231.444V203.408C330.563 202.017 330.497 200.872 330.36 199.991C330.227 199.139 330.016 198.434 329.648 198.02L329.649 198.02L329.642 198.013C328.724 197.019 327.316 196.539 325.401 196.539H324.391V196.357H356.614V204.286C356.347 203.12 356.066 202.144 355.735 201.373C355.324 200.415 354.828 199.621 354.163 199.029C353.483 198.425 352.597 198.065 351.604 197.923C350.651 197.787 349.443 197.721 347.922 197.721H336.038Z" fill="#30302F" stroke="black"/>
<path d="M447.157 238.495H414.604V238.313H415.746C417.634 238.313 419.13 237.676 420.036 236.317L420.036 236.317L420.041 236.308C420.33 235.855 420.506 235.21 420.616 234.409C420.727 233.597 420.776 232.57 420.776 231.313V203.474C420.776 202.143 420.693 201.027 420.53 200.141C420.369 199.27 420.12 198.562 419.744 198.101L419.734 198.089L419.723 198.078C418.763 197.043 417.441 196.474 415.68 196.474H414.539V196.292H433.105V196.478C432.126 196.494 431.285 196.559 430.63 196.678C429.857 196.807 429.147 196.945 428.625 197.166C428.047 197.384 427.594 197.681 427.276 197.999C426.987 198.288 426.699 198.648 426.479 199.014L426.469 199.031L426.46 199.048C426.251 199.467 426.131 200.109 426.057 200.917C425.981 201.743 425.948 202.812 425.948 204.13V231.247C425.948 232.776 426.08 233.883 426.297 234.608C426.543 235.429 427.124 235.995 427.904 236.307L427.917 236.313L427.931 236.317C428.302 236.441 428.927 236.507 429.747 236.548C430.589 236.589 431.698 236.606 433.079 236.606H436.231C439.577 236.606 441.945 236.346 443.345 235.859C444.054 235.645 444.751 235.294 445.372 234.88C446.007 234.457 446.635 233.897 447.254 233.139C447.857 232.403 448.4 231.657 448.943 230.642C449.437 229.838 449.924 228.822 450.451 227.61L450.556 227.63L447.157 238.495Z" fill="#30302F" stroke="black"/>
</svg>
