<svg id="Layer_1" data-name="Layer 1" xmlns="http://www.w3.org/2000/svg" width="1194.62" height="200" viewBox="0 0 1194.62 200"><title>OR_Logo_Black</title><path d="M864.39,60a1.9,1.9,0,0,0-1.9-1.9H843a1.91,1.91,0,0,0-1.9,1.9v47.9a1,1,0,0,1,0,.17l0,.11A26,26,0,0,1,789.25,104V60a1.9,1.9,0,0,0-1.9-1.9H767.81a1.9,1.9,0,0,0-1.9,1.9V104a49.43,49.43,0,0,0,49.38,49.37,48.93,48.93,0,0,0,15.81-2.59,30.63,30.63,0,0,1,9.9-1.63h21.49a1.9,1.9,0,0,0,1.9-1.9Z"/><path d="M700.07,130.13a27.54,27.54,0,1,1,27.54-27.54,27.57,27.57,0,0,1-27.54,27.54m0-78.29a50.76,50.76,0,1,0,50.77,50.75,50.81,50.81,0,0,0-50.77-50.75"/><path d="M964.13,147.46a1.9,1.9,0,0,0,1.9,1.9h19.54a1.9,1.9,0,0,0,1.89-1.9V103.23a51,51,0,0,0-70-47.27,31.42,31.42,0,0,1-11.53,2.26h-18.5a1.9,1.9,0,0,0-1.9,1.9v87.34a1.9,1.9,0,0,0,1.9,1.9H907a1.9,1.9,0,0,0,1.9-1.9V103.23a27.63,27.63,0,0,1,55.26,0v44.23Z"/><path d="M1188.77,139.32a34.3,34.3,0,0,0,5.55-14.19c1.23-6.95-1.55-15.35-4.85-20.59-4.54-7.22-12.54-11.67-24.46-13.64-1-.18-6.89-.87-8.77-1.07a13.62,13.62,0,0,1-7.34-3.1,7.69,7.69,0,0,1-2.34-5.75c.08-1.24.75-5.36,6.08-7.42a25.72,25.72,0,0,1,9.19-1.19l.84,0c.59,0,1.29,0,1.71.1l.26,0h.06a42.3,42.3,0,0,1,10,2l4.11,1.55a.71.71,0,0,0,.21,0,.69.69,0,0,0,.62-.37l8.23-16.19,1.45-2.84a.51.51,0,0,0,0-.42.49.49,0,0,0-.28-.3l-.86-.37-.42-.19a69.7,69.7,0,0,0-21.72-5.51c-.85-.06-1.73-.11-2.61-.14a51.86,51.86,0,0,0-17,2.08c-12.62,3.83-20.22,12.6-22.59,26.06-2.53,14.36,8.41,26.25,19.64,31.22a48.09,48.09,0,0,0,14.6,3.69,36.79,36.79,0,0,1,9,1.88,7.59,7.59,0,0,1,4.64,6.79,6.62,6.62,0,0,1-1.38,4.71c-1.58,2.12-4.25,3.49-8,4.07l-.39.07a34.23,34.23,0,0,1-6.37.33,37.7,37.7,0,0,1-3.92-.33l-.41-.07c-.34,0-.8-.11-1.26-.2l-.66-.1-1.94-.31a1,1,0,0,1-.5-.23,49.56,49.56,0,0,1-11.64-4.49c-.36-.19-1.38-.8-2.2-1.31h-.08a.18.18,0,0,0-.16.06l-.58.8L1120,141.25a.65.65,0,0,0-.12.5.61.61,0,0,0,.28.44l2,1.28a70.49,70.49,0,0,0,27.61,9.46q1.11.12,2.25.21c.85.08,1.71.12,2.56.15a52.23,52.23,0,0,0,17.09-2.12c7.42-2.24,13.19-6.22,17.15-11.85"/><path d="M1052.7,130.41a27.63,27.63,0,1,1,27.62-27.62,27.65,27.65,0,0,1-27.62,27.62M1103.63,3.28a1.89,1.89,0,0,0-1.89-1.9h-19.55a1.9,1.9,0,0,0-1.89,1.9V55a2.86,2.86,0,0,1-2.85,2.86,2.78,2.78,0,0,1-1.3-.32c-1.25-.65-2.56-1.25-3.87-1.8h0a.46.46,0,0,1-.18-.06c-1.38-.56-2.83-1.08-4.43-1.57l-.53-.16a50.81,50.81,0,0,0-14.46-2.11,52.13,52.13,0,0,0-5.7.32,51.15,51.15,0,0,0-45,45.09,50.51,50.51,0,0,0,12.78,39.6,50.84,50.84,0,0,0,54.68,14.06,31.14,31.14,0,0,1,10.2-1.7h22a1.88,1.88,0,0,0,1.9-1.89Z"/><path d="M366,90.71a2.86,2.86,0,0,1-2.49,1.47H318.65a2.88,2.88,0,0,1-2.5-1.47,2.79,2.79,0,0,1,0-2.86,29.06,29.06,0,0,1,49.73,0,2.77,2.77,0,0,1,0,2.86m25.79,17.45a48.87,48.87,0,0,0,.28-5.22,51,51,0,0,0-51-51c-1.08,0-2.18,0-3.26.1A51,51,0,1,0,387,125a.81.81,0,0,0,0-.78.74.74,0,0,0-.64-.35H361.62a.77.77,0,0,0-.51.21,29.09,29.09,0,0,1-47.47-11.38A2.92,2.92,0,0,1,314,110a2.83,2.83,0,0,1,2.33-1.2H391a.76.76,0,0,0,.76-.67"/><path d="M104.37,150.26l2.29-.94a77.47,77.47,0,1,0-40.21,4.92l.26,0v-6.46a24.75,24.75,0,0,0-3.92-13.39l-.95-1.48a19.08,19.08,0,0,0-7.72-6.86l-.87-.42c-.53-.27-1-.53-1.5-.79s-1.11-.62-1.77-1l-.29-.17-1.34-.83c-.71-.46-1.35-.92-2-1.36a53.92,53.92,0,1,1,61.28.72c-.48.33-1,.64-1.47,1l-.23.14s-1.35.84-1.63,1c-.55.32-1.14.63-1.71.93l-.73.39c-.31.15-.58.29-.93.49A18.94,18.94,0,0,0,93.21,133l-.94,1.47a24.62,24.62,0,0,0-3.92,13.37v6.39c1.45-.23,4.67-.75,7.41-1.34a71.83,71.83,0,0,0,8.61-2.6"/><path d="M488.77,149.35h19.55a1.91,1.91,0,0,0,1.9-1.9V103.23a51,51,0,0,0-70-47.27,31.24,31.24,0,0,1-11.51,2.26H410.21a1.9,1.9,0,0,0-1.9,1.89v87.34a1.9,1.9,0,0,0,1.9,1.9h19.53a1.91,1.91,0,0,0,1.9-1.9V103.23a27.62,27.62,0,1,1,55.23,0v44.22a1.91,1.91,0,0,0,1.9,1.9"/><path d="M575.63,69H558.57V24.71h37.2a22.13,22.13,0,0,1,0,44.25ZM606.9,91.2l-.06-.09a44,44,0,0,0,7.53-2.59l.19-.08.28-.14.09,0A45.5,45.5,0,0,0,596.38,1.38H537.15a1.9,1.9,0,0,0-1.9,1.9V147.46a1.89,1.89,0,0,0,1.89,1.89h19.54a1.9,1.9,0,0,0,1.9-1.89V137.11h0V92.28h17.12a7.36,7.36,0,0,1,6.15,3.31l34.7,52.55a2.68,2.68,0,0,0,2.25,1.21h26.52Z"/><path d="M1147,110.49s-21.32-5-23.41-26.53"/><path d="M225.88,130.78a27.61,27.61,0,1,1,27.61-27.6,27.63,27.63,0,0,1-27.61,27.6m0-78.56a50.59,50.59,0,0,0-19,3.69,31.22,31.22,0,0,1-11.53,2.25l-19-.08a1.9,1.9,0,0,0-1.32.55A2,2,0,0,0,174.5,60V198.1a1.91,1.91,0,0,0,1.9,1.9h19.54a1.9,1.9,0,0,0,1.9-1.9V145.71a51.44,51.44,0,0,0,8.53,4.51,50.2,50.2,0,0,0,19.51,3.91,51,51,0,0,0,0-101.91"/></svg>