<svg width="120" height="57" viewBox="0 0 120 57" fill="none" xmlns="http://www.w3.org/2000/svg">
<path d="M43.7479 4.47876C43.1686 4.47876 42.7087 4.94385 42.7087 5.52953C42.7087 6.11521 43.1686 6.5803 43.7479 6.5803C44.3271 6.5803 44.787 6.11521 44.787 5.52953C44.787 4.94385 44.3271 4.47876 43.7479 4.47876Z" fill="#095396"/>
<path d="M55.5366 7.20042C56.1105 7.20042 56.5758 6.72997 56.5758 6.14965C56.5758 5.56932 56.1105 5.09888 55.5366 5.09888C54.9627 5.09888 54.4974 5.56932 54.4974 6.14965C54.4974 6.72997 54.9627 7.20042 55.5366 7.20042Z" fill="#095396"/>
<path d="M60.3237 2.65283C59.7445 2.65283 59.2845 3.11793 59.2845 3.7036C59.2845 4.28928 59.7445 4.75437 60.3237 4.75437C60.9029 4.75437 61.3629 4.28928 61.3629 3.7036C61.3629 3.11793 60.8858 2.65283 60.3237 2.65283Z" fill="#095396"/>
<path d="M65.0426 5.11621C64.4634 5.11621 64.0034 5.58131 64.0034 6.16698C64.0034 6.75266 64.4634 7.21775 65.0426 7.21775C65.6218 7.21775 66.0818 6.75266 66.0818 6.16698C66.0818 5.58131 65.6218 5.11621 65.0426 5.11621Z" fill="#095396"/>
<path d="M70.4429 6.76978C69.8637 6.76978 69.4037 7.23487 69.4037 7.82055C69.4037 8.40622 69.8637 8.87132 70.4429 8.87132C71.0221 8.87132 71.4821 8.40622 71.4821 7.82055C71.4821 7.2521 71.0221 6.76978 70.4429 6.76978Z" fill="#095396"/>
<path d="M76.1499 9.56028C76.7238 9.56028 77.1891 9.08984 77.1891 8.50951C77.1891 7.92919 76.7238 7.45874 76.1499 7.45874C75.576 7.45874 75.1107 7.92919 75.1107 8.50951C75.1107 9.08984 75.576 9.56028 76.1499 9.56028Z" fill="#095396"/>
<path d="M80.4429 12.2476C79.8637 12.2476 79.4037 12.7127 79.4037 13.2983C79.4037 13.884 79.8637 14.3491 80.4429 14.3491C81.0221 14.3491 81.4821 13.884 81.4821 13.2983C81.4821 12.7127 81.0221 12.2476 80.4429 12.2476Z" fill="#095396"/>
<path d="M83.9523 18.7073C84.5315 18.7073 84.9914 18.2422 84.9914 17.6565C84.9914 17.0708 84.5315 16.6057 83.9523 16.6057C83.373 16.6057 82.9131 17.0708 82.9131 17.6565C82.9131 18.2422 83.373 18.7073 83.9523 18.7073Z" fill="#095396"/>
<path d="M84.1567 35.2783C83.5775 35.2783 83.1176 35.7434 83.1176 36.3291C83.1176 36.9148 83.5775 37.3799 84.1567 37.3799C84.736 37.3799 85.1959 36.9148 85.1959 36.3291C85.1959 35.7434 84.736 35.2783 84.1567 35.2783Z" fill="#095396"/>
<path d="M66.9165 42.4787C67.4904 42.4787 67.9557 42.0083 67.9557 41.428C67.9557 40.8476 67.4904 40.3772 66.9165 40.3772C66.3426 40.3772 65.8773 40.8476 65.8773 41.428C65.8773 42.0083 66.3426 42.4787 66.9165 42.4787Z" fill="#095396"/>
<path d="M79.7274 39.0164C79.1482 39.0164 78.6882 39.4815 78.6882 40.0671C78.6882 40.6528 79.1482 41.1179 79.7274 41.1179C80.3066 41.1179 80.7666 40.6528 80.7666 40.0671C80.7666 39.4815 80.2896 39.0164 79.7274 39.0164Z" fill="#095396"/>
<path d="M76.8143 44.2185C76.8143 43.6328 76.3544 43.1677 75.7751 43.1677C75.1959 43.1677 74.736 43.6328 74.736 44.2185C74.736 44.8042 75.1959 45.2693 75.7751 45.2693C76.3544 45.2693 76.8143 44.7869 76.8143 44.2185Z" fill="#095396"/>
<path d="M76.8143 48.6111C76.2351 48.6111 75.7751 49.0762 75.7751 49.6619C75.7751 50.2475 76.2351 50.7126 76.8143 50.7126C77.3935 50.7126 77.8535 50.2475 77.8535 49.6619C77.8535 49.0934 77.3765 48.6111 76.8143 48.6111Z" fill="#095396"/>
<path d="M70.2896 49.8687C69.7104 49.8687 69.2504 50.3337 69.2504 50.9194C69.2504 51.5051 69.7104 51.9702 70.2896 51.9702C70.8688 51.9702 71.3288 51.5051 71.3288 50.9194C71.3288 50.3337 70.8688 49.8687 70.2896 49.8687Z" fill="#095396"/>
<path d="M62.368 56.0354C62.9419 56.0354 63.4072 55.5649 63.4072 54.9846C63.4072 54.4043 62.9419 53.9338 62.368 53.9338C61.7941 53.9338 61.3288 54.4043 61.3288 54.9846C61.3288 55.5649 61.7941 56.0354 62.368 56.0354Z" fill="#095396"/>
<path d="M57.598 53.331C58.1719 53.331 58.6371 52.8606 58.6371 52.2803C58.6371 51.6999 58.1719 51.2295 57.598 51.2295C57.024 51.2295 56.5588 51.6999 56.5588 52.2803C56.5588 52.8606 57.024 53.331 57.598 53.331Z" fill="#095396"/>
<path d="M52.7768 47.6292C52.1976 47.6292 51.7377 48.0942 51.7377 48.6799C51.7377 49.2656 52.1976 49.7307 52.7768 49.7307C53.3561 49.7307 53.816 49.2656 53.816 48.6799C53.816 48.0942 53.3561 47.6292 52.7768 47.6292Z" fill="#095396"/>
<path d="M46.5076 46.8369C47.0816 46.8369 47.5468 46.3664 47.5468 45.7861C47.5468 45.2058 47.0816 44.7354 46.5076 44.7354C45.9337 44.7354 45.4684 45.2058 45.4684 45.7861C45.4684 46.3664 45.9337 46.8369 46.5076 46.8369Z" fill="#095396"/>
<path d="M40.7666 42.875C40.1874 42.875 39.7274 43.3401 39.7274 43.9258C39.7274 44.5114 40.1874 44.9765 40.7666 44.9765C41.3458 44.9765 41.8058 44.5114 41.8058 43.9258C41.8058 43.3401 41.3288 42.875 40.7666 42.875Z" fill="#095396"/>
<path d="M41.6014 39.3437C42.1753 39.3437 42.6406 38.8733 42.6406 38.293C42.6406 37.7126 42.1753 37.2422 41.6014 37.2422C41.0275 37.2422 40.5622 37.7126 40.5622 38.293C40.5622 38.8733 41.0275 39.3437 41.6014 39.3437Z" fill="#095396"/>
<path d="M40.5622 8.50951C40.5622 7.92384 40.1022 7.45874 39.523 7.45874C38.9438 7.45874 38.4838 7.92384 38.4838 8.50951C38.4838 9.09519 38.9438 9.56028 39.523 9.56028C40.1022 9.56028 40.5622 9.09519 40.5622 8.50951Z" fill="#095396"/>
<path d="M35.0596 12.2476C34.4804 12.2476 34.0204 12.7127 34.0204 13.2983C34.0204 13.884 34.4804 14.3491 35.0596 14.3491C35.6388 14.3491 36.0988 13.884 36.0988 13.2983C36.0988 12.7127 35.6388 12.2476 35.0596 12.2476Z" fill="#095396"/>
<path d="M31.9591 16.6057C31.3799 16.6057 30.9199 17.0708 30.9199 17.6565C30.9199 18.2422 31.3799 18.7073 31.9591 18.7073C32.5383 18.7073 32.9983 18.2422 32.9983 17.6565C32.9983 17.088 32.5383 16.6057 31.9591 16.6057Z" fill="#095396"/>
<path d="M55.3322 13.0917H51.5162L45.0596 6.5459C44.77 6.83874 45.0596 6.5459 44.77 6.83874L50.937 13.0917H44.3441L40.8347 9.54318C40.5451 9.83602 40.8347 9.54318 40.5451 9.83602L40.8859 10.1805L43.7819 13.1089H36.7121V13.5223H55.3492V17.467H33.5945V17.8804H55.3322V19.8614C55.3322 19.982 55.4174 20.0681 55.5366 20.0681C55.6559 20.0681 55.7411 19.982 55.7411 19.8614V7.80338H55.3322V13.0917Z" fill="#80AECF"/>
<path d="M60.1193 19.8442C60.1193 19.9647 60.2044 20.0509 60.3237 20.0509C60.4429 20.0509 60.5281 19.9647 60.5281 19.8442V5.34009H60.1193V19.8442Z" fill="#80AECF"/>
<path d="M65.247 7.80322H64.8381V17.6564C64.8381 17.7769 64.9233 17.8631 65.0426 17.8631H82.3168V17.4496H65.247V13.5049H78.8075V13.0915H71.908L75.1277 9.81864L74.8381 9.5258L71.3288 13.0915H65.5366L69.4378 9.14683L69.1482 8.85399L65.247 12.7815V7.80322Z" fill="#80AECF"/>
<path d="M48.5349 36.0707C48.4498 35.9846 48.3305 35.9846 48.2453 36.0707L46.2521 38.0861H43.2368V38.4995H45.8433L41.7717 42.6165L42.0613 42.9093L48.5349 36.3635C48.6201 36.2774 48.6201 36.1396 48.5349 36.0707Z" fill="#80AECF"/>
<path d="M52.5724 47.0263H52.9812V36.2258C52.9812 36.1052 52.8961 36.019 52.7768 36.019C52.6576 36.019 52.5724 36.1052 52.5724 36.2258V41.8413H50.2044C50.1533 41.8413 50.1022 41.8586 50.0511 41.9102L47.4957 44.4941L47.7853 44.7869L50.2726 42.272H52.5554V47.0263H52.5724Z" fill="#80AECF"/>
<path d="M57.8024 35.4506C57.8024 35.33 57.7172 35.2439 57.5979 35.2439C57.4787 35.2439 57.3935 35.33 57.3935 35.4506V50.6265H57.8024V35.4506Z" fill="#80AECF"/>
<path d="M62.5724 34.8993C62.5724 34.7788 62.4872 34.6926 62.3679 34.6926C62.2487 34.6926 62.1635 34.7788 62.1635 34.8993V53.3309H62.5724V43.4089L68.9778 49.8857L69.2674 49.5929L62.5553 42.806V36.5186H66.695V39.757C66.7632 39.7398 66.8313 39.7398 66.8995 39.7398C66.9676 39.7398 67.0357 39.757 67.1039 39.757V36.5186H71.2095V40.0498V44.2185C71.2095 44.2701 71.2265 44.3218 71.2777 44.3735L75.4855 48.6283L75.7751 48.3354L71.6184 44.1323V40.2565H75.5366V42.5476H75.9455V40.2565H78.0579V39.8431H71.6184V36.5186H82.4872V36.1051H62.5724V34.8993Z" fill="#80AECF"/>
<path d="M115.383 31.437H114.668V31.1614H116.405V31.437H115.673V33.2629H115.366V31.437H115.383Z" fill="black"/>
<path d="M116.729 31.1614H117.053L117.751 32.4016L118.45 31.1614H118.773V33.2629H118.467V31.6954L117.853 32.815H117.649L117.036 31.6954V33.2629H116.729V31.1614Z" fill="black"/>
<path d="M9.79554 23.7542C9.79554 23.7542 7.41054 23.4786 6.4395 23.4786C5.19589 23.4786 4.59963 23.9437 4.59963 24.7016C4.59963 25.4423 5.0596 25.7007 6.98464 26.3036C9.47186 27.1132 10.2385 27.8022 10.2385 29.7315C10.2385 32.2637 8.5349 33.4351 6.26914 33.4351C4.70185 33.4351 2.43609 32.9011 2.43609 32.9011L2.67459 31.0751C2.67459 31.0751 4.94035 31.3852 6.13285 31.3852C7.37646 31.3852 7.92161 30.7823 7.92161 29.8866C7.92161 29.1631 7.51275 28.8358 5.86028 28.3707C3.27084 27.6128 2.2998 26.7342 2.2998 24.8739C2.2998 22.4623 3.88413 21.4287 6.21803 21.4287C7.75125 21.4287 9.99997 21.8938 9.99997 21.8938L9.79554 23.7542Z" fill="white"/>
<path d="M12.368 24.7017L13.9012 31.2991H14.31L15.8433 24.7017H18.075L15.0937 36.8458H12.879L13.816 33.2629H12.2317L10.1533 24.7189H12.368V24.7017Z" fill="white"/>
<path d="M18.5349 33.2629V24.7189H20.7836V25.2012C20.7836 25.2012 21.925 24.5122 22.8961 24.5122C25.264 24.5122 25.8773 26.0108 25.8773 28.6292V33.2629H23.6116V28.6981C23.6116 27.4061 23.4412 26.5621 22.3509 26.5621C21.5502 26.5621 20.8177 26.8721 20.8177 26.8721V33.2629H18.5349Z" fill="white"/>
<path d="M33.5093 30.9375C33.5434 31.4543 33.6116 31.661 34.0715 31.7472L34.0034 33.4697C32.879 33.4697 32.2998 33.3492 31.5843 32.8668C31.5843 32.8668 30.3748 33.4697 29.0971 33.4697C27.3254 33.4697 26.4736 32.4706 26.4736 30.6619C26.4736 28.7327 27.5809 28.1814 29.4378 28.0436L31.2436 27.9058V27.3718C31.2436 26.6311 30.9199 26.4416 30.2385 26.4416C29.1312 26.4416 27.0528 26.5794 27.0528 26.5794L26.9846 24.9947C26.9846 24.9947 28.7904 24.4951 30.4088 24.4951C32.6065 24.4951 33.4923 25.3736 33.4923 27.3718V30.9375H33.5093ZM29.7104 29.6284C29.1141 29.6801 28.7564 29.9729 28.7564 30.593C28.7564 31.1959 28.9778 31.6094 29.5911 31.6094C30.3237 31.6094 31.2436 31.3337 31.2436 31.3337V29.5078L29.7104 29.6284Z" fill="white"/>
<path d="M34.8211 24.7018H37.0698V25.1669C37.0698 25.1669 38.1772 24.4951 38.9949 24.4951C41.2266 24.4951 42.3168 25.7181 42.3168 28.9049C42.3168 32.5395 41.0732 33.4525 38.4838 33.4525C37.8535 33.4525 37.0869 33.3147 37.0869 33.3147V36.8288H34.8211V24.7018ZM37.0869 26.8895V31.3682C37.0869 31.3682 37.8535 31.4715 38.3134 31.4715C39.6593 31.4715 40.017 30.7136 40.017 28.9049C40.017 27.1823 39.4378 26.545 38.5519 26.545C37.8705 26.5622 37.0869 26.8895 37.0869 26.8895Z" fill="white"/>
<path d="M45.7751 26.6483V30.1451C45.7751 31.0064 45.7751 31.3853 46.4906 31.3853C46.9676 31.3853 47.7683 31.3509 47.7683 31.3509L47.8705 33.1768C47.8705 33.1768 46.7461 33.4352 46.1499 33.4352C44.1056 33.4352 43.5093 32.6428 43.5093 30.1795V26.631H42.5042V24.6845H43.5093V22.3074H45.7751V24.6845H47.8534V26.631H45.7751V26.6483Z" fill="white"/>
<path d="M48.4838 21.291H50.7495V23.6165H48.4838V21.291ZM48.4838 24.7017H50.7495V33.2457H48.4838V24.7017Z" fill="white"/>
<path d="M57.8705 24.8741L57.8023 26.6828C57.8023 26.6828 56.4736 26.545 55.8262 26.545C54.2078 26.545 53.9011 27.1823 53.9011 28.8877C53.9011 30.7997 54.2248 31.4026 55.8432 31.4026C56.4906 31.4026 57.8023 31.2648 57.8023 31.2648L57.8705 33.0908C57.8705 33.0908 56.0647 33.4525 55.1107 33.4525C52.5894 33.4525 51.6013 32.1089 51.6013 28.8877C51.6013 25.856 52.6575 24.4951 55.1618 24.4951C56.1499 24.4951 57.8705 24.8741 57.8705 24.8741Z" fill="white"/>
<path d="M63.3901 21.6355H67.8194L70.4088 33.2629H68.0749L67.615 31.1613H63.5945L63.1346 33.2629H60.8177L63.3901 21.6355ZM64.0374 29.0942H67.1891L66.0306 23.5648H65.2129L64.0374 29.0942Z" fill="#80AECF"/>
<path d="M72.2317 24.7017L73.5775 31.2991H74.0545L75.4685 24.7017H77.7683L75.7411 33.2456H71.891L69.8637 24.7017H72.2317Z" fill="#80AECF"/>
<path d="M78.2453 21.291H80.5111V23.6165H78.2453V21.291ZM78.2453 24.7017H80.5111V33.2457H78.2453V24.7017Z" fill="#80AECF"/>
<path d="M88.2283 30.9375C88.2624 31.4543 88.3305 31.661 88.7905 31.7472L88.7223 33.4697C87.598 33.4697 87.0187 33.3492 86.3032 32.8668C86.3032 32.8668 85.0937 33.4697 83.816 33.4697C82.0443 33.4697 81.1925 32.4706 81.1925 30.6619C81.1925 28.7327 82.2998 28.1814 84.1567 28.0436L85.9625 27.9058V27.3718C85.9625 26.6311 85.6388 26.4416 84.9574 26.4416C83.8501 26.4416 81.7717 26.5794 81.7717 26.5794L81.7036 24.9947C81.7036 24.9947 83.5094 24.4951 85.1278 24.4951C87.3254 24.4951 88.2112 25.3736 88.2112 27.3718V30.9375H88.2283ZM84.4293 29.6284C83.833 29.6801 83.4753 29.9729 83.4753 30.593C83.4753 31.1959 83.6968 31.6094 84.31 31.6094C85.0426 31.6094 85.9625 31.3337 85.9625 31.3337V29.5078L84.4293 29.6284Z" fill="#80AECF"/>
<path d="M92.1465 26.6483V30.1451C92.1465 31.0064 92.1465 31.3853 92.862 31.3853C93.339 31.3853 94.1397 31.3509 94.1397 31.3509L94.2419 33.1768C94.2419 33.1768 93.1175 33.4352 92.5213 33.4352C90.477 33.4352 89.8807 32.6428 89.8807 30.1795V26.631H88.8756V24.6845H89.8807V22.3074H92.1465V24.6845H94.2248V26.631H92.1465V26.6483Z" fill="#80AECF"/>
<path d="M94.8552 21.291H97.1209V23.6165H94.8552V21.291ZM94.8552 24.7017H97.1209V33.2457H94.8552V24.7017Z" fill="#80AECF"/>
<path d="M105.707 28.9566C105.707 31.5921 104.753 33.4525 101.823 33.4525C98.8756 33.4525 97.9387 31.5921 97.9387 28.9566C97.9387 26.321 98.8927 24.4951 101.823 24.4951C104.77 24.4951 105.707 26.3383 105.707 28.9566ZM103.407 28.9566C103.407 27.3029 103.066 26.4416 101.823 26.4416C100.579 26.4416 100.238 27.3029 100.238 28.9566C100.238 30.6103 100.579 31.506 101.823 31.506C103.066 31.506 103.407 30.6275 103.407 28.9566Z" fill="#80AECF"/>
<path d="M106.525 33.2629V24.7189H108.773V25.2012C108.773 25.2012 109.915 24.5122 110.886 24.5122C113.254 24.5122 113.867 26.0108 113.867 28.6292V33.2629H111.601V28.6981C111.601 27.4061 111.431 26.5621 110.341 26.5621C109.54 26.5621 108.807 26.8721 108.807 26.8721V33.2629H106.525Z" fill="#80AECF"/>
</svg>
